<?xml version="1.0" standalone="no"?>
<!DOCTYPE svg PUBLIC "-//W3C//DTD SVG 20010904//EN"
 "http://www.w3.org/TR/2001/REC-SVG-20010904/DTD/svg10.dtd">
<svg version="1.0" xmlns="http://www.w3.org/2000/svg"
 width="512.000000pt" height="512.000000pt" viewBox="0 0 512.000000 512.000000"
 preserveAspectRatio="xMidYMid meet">
<metadata>
Created by potrace 1.11, written by Peter Selinger 2001-2013
</metadata>
<g transform="translate(0.000000,512.000000) scale(0.100000,-0.100000)"
fill="#000000" stroke="none">
<path d="M2359 5056 c-2 -2 -31 -7 -64 -10 -33 -3 -71 -7 -85 -9 -14 -3 -47
-8 -75 -12 -27 -4 -68 -11 -90 -17 -22 -6 -48 -12 -57 -13 -10 -2 -62 -16
-115 -30 -376 -102 -755 -320 -1043 -600 -107 -103 -151 -152 -275 -307 -20
-25 -135 -197 -135 -202 0 -2 -17 -33 -38 -67 -82 -136 -171 -346 -225 -535
-19 -65 -37 -132 -40 -149 -3 -16 -10 -55 -16 -85 -30 -161 -36 -240 -36 -460
0 -265 16 -405 72 -620 130 -504 416 -960 808 -1290 28 -23 60 -51 73 -61 42
-36 206 -146 292 -196 145 -85 367 -183 498 -220 114 -31 198 -54 221 -58 14
-2 47 -9 75 -14 144 -28 242 -36 461 -36 203 0 282 6 421 30 419 73 811 250
1137 512 333 268 583 602 752 1004 26 61 93 259 100 293 2 12 4 22 6 24 1 1 2
5 3 10 11 42 17 71 21 92 3 14 9 48 14 75 42 215 50 624 17 815 -3 14 -7 43
-11 64 -28 193 -112 453 -214 666 -314 655 -926 1156 -1636 1336 -49 12 -211
44 -254 49 -30 4 -63 9 -75 12 -25 6 -481 14 -487 9z"/>
</g>
</svg>
