<svg xmlns="http://www.w3.org/2000/svg" width="57.523" height="57.523" viewBox="0 0 57.523 57.523"><defs><style>.a{fill:#dfdef9;}.b{fill:#3c35eb;}</style></defs><g transform="translate(-169 -613)"><circle class="a" cx="28.762" cy="28.762" r="28.762" transform="translate(169 613)"/><g transform="translate(1.776 2.073)"><path class="b" d="M316.005,173.756a1.471,1.471,0,0,1-1.046-.437l-.018-.018a1.468,1.468,0,0,1,.051-2.068l8.044-7.773-8.054-7.771a1.466,1.466,0,0,1,2.029-2.115l9.069,8.763a1.341,1.341,0,0,1,.123.115,1.467,1.467,0,0,1-.048,2.071l-9.145,8.837-.007.007A1.489,1.489,0,0,1,316.005,173.756Z" transform="translate(-112.615 476.683)"/><path class="b" d="M88.463,173.756a1.461,1.461,0,0,1-1.022-.419l-9.171-8.856-.034-.037c-.024-.027-.043-.049-.06-.071l-.011-.014a1.456,1.456,0,0,1-.282-.641l0-.012c-.007-.044-.012-.08-.015-.116l0-.045c0-.028,0-.054,0-.081s0-.052,0-.077l0-.052c0-.032.007-.067.013-.1l0-.019a1.465,1.465,0,0,1,.283-.644l.012-.015c.019-.024.04-.048.061-.072l.039-.044,9.168-8.86a1.466,1.466,0,1,1,2.03,2.115l-8.038,7.773,8.042,7.772a1.466,1.466,0,0,1,.042,2.069A1.45,1.45,0,0,1,88.463,173.756Z" transform="translate(100.363 476.683)"/><path class="b" d="M210.03,150.4a1.366,1.366,0,0,1-.407-.059,1.475,1.475,0,0,1-1-1.807l6.564-23.5a1.476,1.476,0,0,1,1.411-1.072,1.467,1.467,0,0,1,1.412,1.867l-6.564,23.5A1.47,1.47,0,0,1,210.03,150.4Z" transform="translate(-17.257 502.969)"/></g></g></svg>