<?xml version="1.0" encoding="utf-8"?>
<!-- Generator: Adobe Illustrator 23.0.3, SVG Export Plug-In . SVG Version: 6.00 Build 0)  -->
<svg version="1.1" id="Layer_1" xmlns="http://www.w3.org/2000/svg" xmlns:xlink="http://www.w3.org/1999/xlink" x="0px" y="0px"
	 viewBox="0 0 512 512" style="enable-background:new 0 0 512 512;" xml:space="preserve">
<style type="text/css">
	.st0{fill:#DFDEF9;}
	.st1{fill:#0F0A84;}
	.st2{fill:#251BF9;}
</style>
<g>
	<circle class="st0" cx="256" cy="256" r="256"/>
</g>
<g>
	<g>
		<path class="st1" d="M316.99,341.29c-2.05,0-3.99-0.81-5.47-2.29l-0.07-0.07c-1.36-1.43-2.11-3.35-2.07-5.38
			c0.04-2.04,0.87-3.94,2.34-5.34l74.74-72.22l-74.8-72.18c-3.03-2.89-3.12-7.71-0.22-10.76c1.42-1.48,3.41-2.34,5.48-2.34
			c1.98,0,3.85,0.75,5.28,2.11l79.92,77.22l0.13,0.1c0.24,0.2,0.45,0.39,0.64,0.59c1.41,1.48,2.15,3.41,2.11,5.45
			c-0.05,2.03-0.88,3.92-2.34,5.31l-80.43,77.72C320.76,340.55,318.9,341.29,316.99,341.29z"/>
		<path class="st1" d="M195.01,341.29c-1.98,0-3.91-0.79-5.3-2.18l-80.61-77.84c-0.02-0.02-0.06-0.06-0.09-0.1
			c-0.16-0.18-0.27-0.3-0.37-0.43l-0.09-0.12c-0.73-0.94-1.23-2.08-1.44-3.29l-0.01-0.08c-0.03-0.2-0.06-0.39-0.07-0.59l-0.02-0.22
			c-0.01-0.15-0.01-0.3-0.01-0.45c0-0.14,0.01-0.27,0.01-0.41l0.02-0.26c0.02-0.18,0.04-0.36,0.07-0.55l0.02-0.09
			c0.21-1.21,0.72-2.36,1.46-3.33l0.06-0.08c0.1-0.12,0.2-0.25,0.31-0.37l0.24-0.26l80.54-77.83c1.43-1.36,3.31-2.12,5.29-2.12
			c2.07,0,4.06,0.85,5.48,2.34c2.9,3.05,2.8,7.88-0.23,10.76l-74.69,72.22l74.7,72.18c3.03,2.89,3.12,7.71,0.22,10.76
			C199.08,340.46,197.12,341.29,195.01,341.29z"/>
	</g>
	<path class="st2" d="M227.09,367.03c-0.75,0-1.43-0.1-2.03-0.29c-4.08-1.21-6.41-5.41-5.27-9.4l57.76-206.81
		c0.93-3.27,3.95-5.56,7.32-5.56c0.7,0,1.4,0.1,2.08,0.29c1.96,0.56,3.58,1.84,4.58,3.61c1,1.78,1.25,3.83,0.69,5.79l-57.76,206.81
		C233.54,364.75,230.52,367.03,227.09,367.03z"/>
</g>
</svg>
