<svg xmlns="http://www.w3.org/2000/svg" width="57.047" height="57.047" viewBox="0 0 57.047 57.047"><defs><style>.a{fill:#dfdef9;}.b{fill:#3c35eb;}</style></defs><g transform="translate(-1027 -614)"><circle class="a" cx="28.523" cy="28.523" r="28.523" transform="translate(1027 614)"/><g transform="translate(1043 625)"><path class="b" d="M129.9,88.69a2.607,2.607,0,0,0-2.6,2.6v28.58a2.607,2.607,0,0,0,2.6,2.6h20.785a2.607,2.607,0,0,0,2.6-2.6V91.288a2.607,2.607,0,0,0-2.6-2.6H129.9Zm3.9,1.3h10.393v2.6h-5.846a.65.65,0,0,0-.65.65v2.6a.65.65,0,0,0,.65.65h5.846v1.3h-4.547a.65.65,0,0,0-.65.65v2.6a.65.65,0,0,0,.65.65h4.547v1.949a.65.65,0,0,0,1.01.54l1.588-1.058,1.588,1.058a.65.65,0,0,0,1.01-.54V89.989h1.3a1.282,1.282,0,0,1,1.3,1.3v28.58a1.282,1.282,0,0,1-1.3,1.3H133.8Zm5.2,3.9h5.2v1.3h-5.2Zm1.3,5.2h3.9v1.3h-3.9Z" transform="translate(-127.3 -88.69)"/><rect class="b" width="1.299" height="31.16" transform="translate(5.196 1.308)"/></g></g></svg>