<?xml version="1.0" encoding="utf-8"?>
<!-- Generator: Adobe Illustrator 23.0.3, SVG Export Plug-In . SVG Version: 6.00 Build 0)  -->
<svg version="1.1" id="Layer_1" xmlns="http://www.w3.org/2000/svg" xmlns:xlink="http://www.w3.org/1999/xlink" x="0px" y="0px"
	 viewBox="0 0 512 512" style="enable-background:new 0 0 512 512;" xml:space="preserve">
<style type="text/css">
	.st0{fill:#DFDEF9;}
	.st1{fill:#0F0A84;}
	.st2{fill:#251BF9;}
</style>
<circle class="st0" cx="256" cy="256" r="256"/>
<g>
	<path id="path4672" class="st1" d="M184,139c-9.89,0-18,8.11-18,18v198c0,9.89,8.11,18,18,18h144c9.89,0,18-8.11,18-18v-94.5V229
		v-72c0-9.89-8.11-18-18-18h-13.18h-0.32h-27h-9H184z M184,148h18v216h-18c-5.06,0-9-3.94-9-9V157C175,151.94,178.94,148,184,148z
		 M211,148h67.5h4.5v18h-40.5c-2.49,0-4.5,2.01-4.5,4.5v18c0,2.49,2.01,4.5,4.5,4.5H283v9h-31.5c-2.49,0-4.5,2.01-4.5,4.5v18
		c0,2.49,2.01,4.5,4.5,4.5H283v13.5c0,2.49,2.02,4.5,4.5,4.5c0.89,0,1.76-0.26,2.49-0.76l11-7.33l11,7.33
		c2.07,1.38,4.86,0.82,6.24-1.25c0.49-0.74,0.76-1.61,0.76-2.49V148h9c5.06,0,9,3.94,9,9v72v31.5V355c0,5.06-3.94,9-9,9H211V148z
		 M292,148h18v86.1l-6.5-4.34c-1.51-1.01-3.48-1.01-4.99,0l-6.5,4.34v-8.89c0.08-0.48,0.08-0.96,0-1.44V207.2
		c0.08-0.48,0.08-0.96,0-1.44V189.2c0.08-0.48,0.08-0.96,0-1.44V171.2c0.08-0.48,0.08-0.96,0-1.44V148z M247,175h36v9h-36V175z
		 M256,211h27v9h-27V211z"/>
	<rect x="202" y="148.06" class="st2" width="9" height="215.87"/>
</g>
</svg>
