<?xml version="1.0" encoding="utf-8"?>
<!-- Generator: Adobe Illustrator 23.0.3, SVG Export Plug-In . SVG Version: 6.00 Build 0)  -->
<svg version="1.1" id="Layer_1" xmlns="http://www.w3.org/2000/svg" xmlns:xlink="http://www.w3.org/1999/xlink" x="0px" y="0px"
	 viewBox="0 0 512 512" style="enable-background:new 0 0 512 512;" xml:space="preserve">
<style type="text/css">
	.st0{fill:#DFDEF9;}
	.st1{fill:#251BF9;}
	.st2{fill:#0F0A84;}
</style>
<g>
	<circle class="st0" cx="256" cy="256" r="256"/>
</g>
<g>
	<g>
		<path class="st1" d="M251.93,264.1v-5.43c-0.04,0-0.09,0-0.13,0c-16.16,0-29.5-12.21-31.3-27.9l-5.22,0.55
			C217.35,249.66,232.91,264.08,251.93,264.1z"/>
		<path class="st1" d="M192.13,353.29h4.79c0.88-9.36,4.33-17.97,9.62-25.14l-4.44-1.97C196.56,333.96,192.99,343.25,192.13,353.29z
			"/>
	</g>
	<g>
		<path class="st2" d="M167.6,173.14l34.11,15c-6.76,10-10.29,21.47-10.29,33.53c0,32.94,26.76,59.99,59.99,59.99
			s59.99-26.76,59.99-59.99c0-11.76-3.53-23.53-10-33.23l30-14.12v57.05l-9.12,19.41c-0.59,1.47-0.59,2.94,0.29,4.12
			c0.88,1.18,2.35,2.06,3.82,2.06h17.35c1.47,0,2.94-0.59,3.53-2.06c0.88-1.18,0.88-2.65,0.29-4.12l-7.94-19.41V170.5
			c0-2.35-0.29-4.12-4.41-5.88c-0.88-0.29-81.76-36.17-81.76-36.17c-1.18-0.59-2.35-0.59-3.53,0l-82.34,36.47
			c-1.47,0.59-2.65,2.35-2.65,4.12C164.95,170.79,165.83,172.26,167.6,173.14z M302.29,221.67c0,28.23-22.94,51.17-51.17,51.17
			s-51.17-22.94-51.17-51.17c0-10.88,3.53-21.17,9.7-30l40,17.94c0.59,0.29,1.18,0.29,1.76,0.29c0.59,0,1.18,0,1.76-0.29
			l39.41-17.65C299.05,200.79,302.29,211.08,302.29,221.67z M333.17,248.13l2.06-4.41l1.76,4.41H333.17z M251.71,137.26l71.46,31.76
			l-71.46,31.76l-71.46-31.76L251.71,137.26z"/>
		<path class="st2" d="M252.88,291.36c-48.95,0-88.87,39.92-88.87,88.87c0,2.01,1.76,3.77,3.77,3.77h170.21
			c2.01,0,3.77-1.76,3.77-3.77C341.75,331.28,301.84,291.36,252.88,291.36z M171.79,376.47c2.01-43.18,37.66-77.57,81.34-77.57
			s79.08,34.64,81.09,77.57H171.79z"/>
		<path class="st2" d="M219.85,173.29l-9.37-4.16l9.09-4.04l-3.13-4.17l-13.21,5.85c-0.84,0.34-1.52,1.35-1.52,2.36
			s0.51,1.86,1.52,2.36l13.04,5.74L219.85,173.29z"/>
	</g>
</g>
</svg>
