<?xml version="1.0" encoding="utf-8"?>
<!-- Generator: Adobe Illustrator 23.0.3, SVG Export Plug-In . SVG Version: 6.00 Build 0)  -->
<svg version="1.1" id="Layer_1" xmlns="http://www.w3.org/2000/svg" xmlns:xlink="http://www.w3.org/1999/xlink" x="0px" y="0px"
	 viewBox="0 0 512 512" style="enable-background:new 0 0 512 512;" xml:space="preserve">
<style type="text/css">
	.st0{fill:#DFDEF9;}
	.st1{fill:#251BF9;}
	.st2{fill:#0F0A84;}
</style>
<circle class="st0" cx="256" cy="256" r="256"/>
<g>
	<path class="st1" d="M302.33,183.56h-94.78c-2.26,0-4.1-1.83-4.1-4.1v-13.69c0-9.8,7.97-17.77,17.77-17.77h67.44
		c9.8,0,17.77,7.97,17.77,17.77v13.69C306.43,181.72,304.6,183.56,302.33,183.56z M211.65,175.36h86.58v-9.59
		c0-5.28-4.29-9.57-9.57-9.57h-67.44c-5.28,0-9.57,4.29-9.57,9.57V175.36z"/>
	<g>
		<path class="st2" d="M358.56,175.36H153.44c-9.8,0-17.77,7.97-17.77,17.77v80.89c0,5.48,2.48,10.51,6.73,13.86v56.98
			c0,10.55,8.59,19.14,19.14,19.14h188.92c10.55,0,19.14-8.58,19.14-19.14v-56.98c4.25-3.35,6.73-8.38,6.73-13.86v-80.89
			C376.33,183.33,368.36,175.36,358.56,175.36z M350.46,355.8H161.54c-6.03,0-10.94-4.91-10.94-10.94v-53.33
			c0.78,0.13,1.76,0.26,2.84,0.26h82.89c2.26,0,4.1-1.83,4.1-4.1c0-2.27-1.84-4.1-4.1-4.1h-82.88c-0.53,0-1.12-0.09-1.56-0.16
			c-0.01,0-0.02,0-0.02-0.01l-0.69-0.15c0,0-0.01,0-0.01,0c-0.22-0.05-0.43-0.13-0.7-0.22c-0.73-0.26-1.33-0.53-1.85-0.84
			c-2.96-1.76-4.72-4.82-4.72-8.19v-80.89c0-5.28,4.29-9.57,9.57-9.57h205.12c5.28,0,9.57,4.29,9.57,9.57v80.89
			c0,3.37-1.77,6.43-4.73,8.19c-0.51,0.31-1.12,0.58-1.9,0.85c-0.2,0.07-0.41,0.14-0.67,0.21l-0.68,0.15c0,0,0,0-0.01,0
			c-0.5,0.08-1.06,0.17-1.58,0.17h-74.98c-2.26,0-4.1,1.83-4.1,4.1s1.84,4.1,4.1,4.1h74.98c1.06,0,2.03-0.13,2.84-0.26v53.33
			C361.4,350.89,356.49,355.8,350.46,355.8z"/>
		<path class="st2" d="M195.2,340.22h-26.86c-0.23,0-0.45-0.04-0.88-0.13l-0.28-0.09c-0.26-0.09-0.52-0.2-0.75-0.34
			c-1.17-0.69-1.87-1.9-1.87-3.23v-21.92c0-2.27-1.84-4.1-4.1-4.1c-2.26,0-4.1,1.83-4.1,4.1v21.92c0,4.25,2.2,8.09,5.88,10.28
			c0.68,0.4,1.41,0.74,2.26,1.04c0.31,0.1,0.62,0.21,0.91,0.28c0.27,0.07,0.55,0.13,0.89,0.19c0.66,0.11,1.33,0.19,2.03,0.19h26.86
			c2.26,0,4.1-1.83,4.1-4.1C199.3,342.05,197.47,340.22,195.2,340.22z"/>
	</g>
	<g>
		<path class="st1" d="M206.84,274.36h-38.66c-1,0-1.89-0.13-2.63-0.25c-0.43-0.08-0.78-0.15-1.12-0.24
			c-0.36-0.09-0.75-0.22-1.14-0.35c-1.15-0.4-2.1-0.83-2.96-1.35c-4.75-2.82-7.58-7.77-7.58-13.24v-31.54c0-2.27,1.84-4.1,4.1-4.1
			c2.26,0,4.1,1.83,4.1,4.1v31.55c0,2.55,1.33,4.86,3.57,6.19c0.39,0.23,0.85,0.44,1.41,0.63c0.18,0.06,0.36,0.13,0.54,0.17
			c0.21,0.05,0.38,0.09,0.55,0.12c0.33,0.06,0.74,0.12,1.17,0.12h38.66c2.26,0,4.1,1.83,4.1,4.1
			C210.94,272.53,209.1,274.36,206.84,274.36z"/>
	</g>
	<g>
		<path class="st1" d="M274.13,305.7h-28.35c-7.47,0-13.55-6.08-13.55-13.55v-15.93c0-7.47,6.08-13.55,13.55-13.55h28.35
			c7.47,0,13.55,6.08,13.55,13.55v15.93C287.67,299.63,281.6,305.7,274.13,305.7z M245.78,270.88c-2.95,0-5.35,2.4-5.35,5.35v15.93
			c0,2.95,2.4,5.35,5.35,5.35h28.35c2.95,0,5.35-2.4,5.35-5.35v-15.93c0-2.95-2.4-5.35-5.35-5.35H245.78z"/>
	</g>
</g>
</svg>
