<?xml version="1.0" encoding="utf-8"?>
<!-- Generator: Adobe Illustrator 22.0.0, SVG Export Plug-In . SVG Version: 6.00 Build 0)  -->
<svg version="1.1" id="Layer_1" xmlns="http://www.w3.org/2000/svg" xmlns:xlink="http://www.w3.org/1999/xlink" x="0px" y="0px"
	 viewBox="0 0 155.2 144" style="enable-background:new 0 0 155.2 144;" xml:space="preserve">
<style type="text/css">
	.st0{fill:#007BB6;}
	.st1{fill:#FFFFFF;}
</style>
<g>
	<g>
		<path class="st0" d="M133.3,0H10.6C4.8,0,0,4.6,0,10.4v123.2c0,5.7,4.8,10.4,10.6,10.4h122.7c5.9,0,10.7-4.7,10.7-10.4V10.4
			C144,4.6,139.2,0,133.3,0z"/>
		<path class="st1" d="M21.3,54h21.4v68.7H21.3V54z M32,19.8c6.8,0,12.4,5.5,12.4,12.4c0,6.8-5.5,12.4-12.4,12.4
			c-6.8,0-12.4-5.6-12.4-12.4C19.6,25.4,25.2,19.8,32,19.8"/>
		<path class="st1" d="M56.1,54h20.5v9.4h0.3c2.8-5.4,9.8-11.1,20.2-11.1c21.6,0,25.6,14.2,25.6,32.7v37.7h-21.3V89.3
			c0-8-0.1-18.2-11.1-18.2c-11.1,0-12.8,8.7-12.8,17.6v34H56.1V54z"/>
	</g>
	<g>
		<path d="M151.9,120c0.7-0.1,1-0.5,1-1.1c0-0.8-0.5-1.1-1.4-1.1H150v4h0.6V120h0.7l0,0l1.1,1.7h0.6L151.9,120L151.9,120z
			 M151.3,119.6h-0.7v-1.4h0.9c0.4,0,0.9,0.1,0.9,0.6C152.4,119.5,151.9,119.6,151.3,119.6z"/>
		<path d="M151.3,116c-2.1,0-3.8,1.7-3.8,3.8c0,2.1,1.7,3.8,3.8,3.8c2.1,0,3.8-1.7,3.8-3.8C155.2,117.6,153.5,116,151.3,116z
			 M151.3,123.1c-1.8,0-3.3-1.4-3.3-3.3c0-1.9,1.4-3.3,3.3-3.3c1.8,0,3.3,1.4,3.3,3.3C154.6,121.7,153.2,123.1,151.3,123.1z"/>
	</g>
</g>
</svg>
