<svg xmlns="http://www.w3.org/2000/svg" width="57.523" height="57.523" viewBox="0 0 57.523 57.523"><defs><style>.a{fill:#dfdef9;}.b{fill:#3c35eb;}</style></defs><g transform="translate(-1027 -292.086)"><circle class="a" cx="28.762" cy="28.762" r="28.762" transform="translate(1027 292.086)"/><path class="b" d="M151.987,93.961l-1.036-2.532V83.488c0-.307-.038-.537-.576-.767C150.26,82.682,139.71,78,139.71,78a.489.489,0,0,0-.46,0l-10.742,4.757a.6.6,0,0,0-.345.537.579.579,0,0,0,.345.537l4.45,1.957,1.05.467,5.2,2.334a.71.71,0,0,0,.46,0l5.141-2.3,1.151-.46,3.913-1.841v7.443l-1.189,2.532a.534.534,0,0,0,.038.537.656.656,0,0,0,.5.269h2.263a.465.465,0,0,0,.46-.269A.534.534,0,0,0,151.987,93.961Zm-16.8-9.114-2.472-1.087a.482.482,0,0,1-.288-.448.5.5,0,0,1,.288-.448l2.5-1.109.593.791-1.722.765,1.775.789Zm14.925,8.768.268-.575.23.575Zm-10.473,5.64a11.615,11.615,0,0,0-11.593,11.593.5.5,0,0,0,.491.491h22.2a.5.5,0,0,0,.491-.491A11.615,11.615,0,0,0,139.633,99.256Zm-7.548,8.356-.822-.232a9.763,9.763,0,0,1,3.019-4.164l.665.552A8.948,8.948,0,0,0,132.086,107.612Zm9.48-11.764-.247-.88-.021.006a5.3,5.3,0,0,1-6.336-3.092l-.821.327A6.219,6.219,0,0,0,141.566,95.848Zm-8.822-9.723a7.725,7.725,0,0,0-1.129,4.038,7.826,7.826,0,1,0,14.555-4l-1.12.478a6.5,6.5,0,0,1,1.028,3.526,6.675,6.675,0,1,1-12.3-3.58Z" transform="translate(915.96 226.141)"/></g></svg>