<svg xmlns="http://www.w3.org/2000/svg" width="57.523" height="57.523" viewBox="0 0 57.523 57.523"><defs><style>.a{fill:#dfdef9;}.b{fill:#3c35eb;}</style></defs><g transform="translate(-169 -292)"><circle class="a" cx="28.762" cy="28.762" r="28.762" transform="translate(169 292)"/><path class="b" d="M112.24,132.514h-5.105a.9.9,0,0,1-.155-.016c-.022,0-.045-.008-.072-.015s-.047-.014-.071-.023a1,1,0,0,1-.186-.083.946.946,0,0,1-.472-.818v-4.166a.542.542,0,0,0-1.083,0v4.166a2.019,2.019,0,0,0,1,1.749,2.071,2.071,0,0,0,.391.178c.051.018.1.035.151.047s.092.022.148.032a2.019,2.019,0,0,0,.347.034h5.105a.542.542,0,0,0,0-1.083Zm19.11-11.2h-6.883V120.05a2.349,2.349,0,0,0-2.347-2.347h-8.906a2.349,2.349,0,0,0-2.347,2.347v1.266h-6.6a2.349,2.349,0,0,0-2.347,2.347v10.682a2.316,2.316,0,0,0,.888,1.83V143.7a2.531,2.531,0,0,0,2.528,2.528H130.28a2.53,2.53,0,0,0,2.528-2.528v-7.525a2.316,2.316,0,0,0,.889-1.831V123.662A2.349,2.349,0,0,0,131.35,121.316Zm-21.126,23.163h-3.546a1.587,1.587,0,0,1-.268-.026c-.046-.008-.082-.016-.118-.026s-.08-.023-.12-.037a1.6,1.6,0,0,1-.3-.137,1.566,1.566,0,0,1-.777-1.357V140a.542.542,0,0,1,1.083,0V142.9a.493.493,0,0,0,.247.426.566.566,0,0,0,.1.044l.036.012a.593.593,0,0,0,.116.017h3.546a.541.541,0,1,1,0,1.083Zm10.683-7.74a.707.707,0,0,1-.706.706h-3.744a.707.707,0,0,1-.706-.706v-.586s0,0,0,0,0,0,0,0v-1.51a.707.707,0,0,1,.706-.706H120.2a.707.707,0,0,1,.706.706Zm11.707-2.395a1.251,1.251,0,0,1-.624,1.082,1.356,1.356,0,0,1-.251.113c-.027.009-.054.019-.089.028l-.09.02h0a1.336,1.336,0,0,1-.209.022h-9.36v-.972a1.791,1.791,0,0,0-1.789-1.789h-3.744a1.792,1.792,0,0,0-1.789,1.789v.972h-10.4a1.289,1.289,0,0,1-.207-.022h0l-.091-.02h0c-.029-.007-.057-.017-.093-.03a1.357,1.357,0,0,1-.245-.111,1.252,1.252,0,0,1-.623-1.082V123.662a1.265,1.265,0,0,1,1.264-1.264H131.35a1.265,1.265,0,0,1,1.264,1.264Z" transform="translate(80.083 189.297)"/></g></svg>